<svg width="46" height="47" viewBox="0 0 46 47" fill="none" xmlns="http://www.w3.org/2000/svg">
<g clip-path="url(#clip0_6561_728)">
<path d="M50.4697 -3.94354H-4.58984V51.1159H50.4697V-3.94354Z" fill="white"/>
<path d="M50.4697 -3.94354H-4.58984V51.1159H50.4697V-3.94354Z" fill="#0D0D0D"/>
<path d="M4.58984 8.10102C4.58984 6.51724 5.87375 5.23334 7.45752 5.23334H38.4285C40.0123 5.23334 41.2962 6.51724 41.2962 8.10102V39.072C41.2962 40.6558 40.0123 41.9397 38.4285 41.9397H7.45753C5.87375 41.9397 4.58984 40.6558 4.58984 39.072V8.10102Z" fill="#FE7C67"/>
<mask id="mask0_6561_728" style="mask-type:luminance" maskUnits="userSpaceOnUse" x="8" y="19" width="30" height="28">
<path d="M8.30469 19.0018H37.5773V46.5279H8.30469V19.0018Z" fill="white"/>
</mask>
<g mask="url(#mask0_6561_728)">
<path d="M24.1279 21.6588C24.063 21.6584 16.7783 21.6588 16.7783 21.6588V19.0018L8.30469 24.9805L16.7783 30.9588V28.3018C16.7783 28.3018 24.0785 28.301 24.1279 28.3026C27.8957 28.3018 30.9458 31.3523 30.9458 35.1154C30.9458 38.878 27.8957 41.9285 24.1327 41.9285C24.1279 41.9281 24.1279 48.5915 24.1279 48.5915C31.5652 48.5915 37.5941 42.5626 37.5941 35.1249C37.5941 27.6877 31.5652 21.6588 24.1279 21.6588Z" fill="#0D0D0D"/>
</g>
</g>
<defs>
<clipPath id="clip0_6561_728">
<rect y="0.644958" width="45.8829" height="45.8829" rx="5.73536" fill="white"/>
</clipPath>
</defs>
</svg>
