<svg width="46" height="46" viewBox="0 0 46 46" fill="none" xmlns="http://www.w3.org/2000/svg">
<g clip-path="url(#clip0_6561_740)">
<path d="M50.4701 -4.58813H-4.58594V50.4679H50.4701V-4.58813Z" fill="white"/>
<path d="M50.4701 -4.58813H-4.58594V50.4679H50.4701V-4.58813Z" fill="#0D0D0D"/>
<path d="M4.58594 8.95177C4.58594 6.5418 6.5396 4.58813 8.94957 4.58813H36.9263C39.3363 4.58813 41.2899 6.5418 41.2899 8.95177V36.9285C41.2899 39.3385 39.3363 41.2921 36.9263 41.2921H8.94957C6.5396 41.2921 4.58594 39.3385 4.58594 36.9285V8.95177Z" fill="#18C9BF"/>
<mask id="mask0_6561_740" style="mask-type:luminance" maskUnits="userSpaceOnUse" x="10" y="11" width="26" height="35">
<path d="M10.7344 11.6918H35.1272V45.8799H10.7344V11.6918Z" fill="white"/>
</mask>
<g mask="url(#mask0_6561_740)">
<path d="M22.9308 11.6918C16.1966 11.6918 10.7344 17.1575 10.7344 23.8958C10.7344 33.0491 22.9308 46.5606 22.9308 46.5606C22.9308 46.5606 35.1272 33.0491 35.1272 23.8958C35.1272 17.1575 29.6651 11.6918 22.9308 11.6918ZM22.9308 28.2544C20.5265 28.2544 18.575 26.3017 18.575 23.8958C18.575 21.4899 20.5265 19.5372 22.9308 19.5372C25.3351 19.5372 27.2866 21.4899 27.2866 23.8958C27.2866 26.3017 25.3351 28.2544 22.9308 28.2544Z" fill="#0D0D0D"/>
</g>
</g>
<defs>
<clipPath id="clip0_6561_740">
<rect width="45.88" height="45.88" rx="8.72727" fill="white"/>
</clipPath>
</defs>
</svg>
