<svg width="1257" height="283" viewBox="0 0 1257 283" fill="none" xmlns="http://www.w3.org/2000/svg">
<rect width="1257" height="283" fill="#324438"/>
<g opacity="0.3">
<g clip-path="url(#clip0_6598_537)">
<line x1="-0.226562" y1="282.494" x2="291.158" y2="282.494" stroke="#CCCCCC" stroke-width="0.292555"/>
<line x1="-0.226562" y1="247.389" x2="291.158" y2="247.389" stroke="#CCCCCC" stroke-width="0.292555"/>
<line x1="-0.226562" y1="212.281" x2="291.158" y2="212.281" stroke="#CCCCCC" stroke-width="0.292555"/>
<line x1="-0.226562" y1="177.175" x2="291.158" y2="177.175" stroke="#CCCCCC" stroke-width="0.292555"/>
<line x1="-0.21875" y1="142.07" x2="291.166" y2="142.07" stroke="#CCCCCC" stroke-width="0.292555"/>
<line x1="-0.21875" y1="106.96" x2="291.166" y2="106.96" stroke="#CCCCCC" stroke-width="0.292555"/>
<line x1="-0.21875" y1="71.8564" x2="291.166" y2="71.8565" stroke="#CCCCCC" stroke-width="0.292555"/>
<line x1="-0.21875" y1="36.7488" x2="291.166" y2="36.7488" stroke="#CCCCCC" stroke-width="0.292555"/>
<line x1="233.088" y1="388.547" x2="233.088" y2="1.20413" stroke="#CCCCCC" stroke-width="0.292555"/>
<line x1="197.987" y1="388.547" x2="197.987" y2="1.20413" stroke="#CCCCCC" stroke-width="0.292555"/>
<line x1="162.877" y1="388.547" x2="162.877" y2="1.20413" stroke="#CCCCCC" stroke-width="0.292555"/>
<line x1="127.768" y1="388.545" x2="127.768" y2="1.2025" stroke="#CCCCCC" stroke-width="0.292555"/>
<line x1="92.6662" y1="388.545" x2="92.6662" y2="1.20242" stroke="#CCCCCC" stroke-width="0.292555"/>
<line x1="57.549" y1="388.545" x2="57.5491" y2="1.20242" stroke="#CCCCCC" stroke-width="0.292555"/>
<line x1="22.4553" y1="388.547" x2="22.4553" y2="1.20413" stroke="#CCCCCC" stroke-width="0.292555"/>
<line x1="245.266" y1="282.494" x2="536.65" y2="282.494" stroke="#CCCCCC" stroke-width="0.292555"/>
<line x1="245.266" y1="247.389" x2="536.65" y2="247.389" stroke="#CCCCCC" stroke-width="0.292555"/>
<line x1="245.266" y1="212.281" x2="536.65" y2="212.281" stroke="#CCCCCC" stroke-width="0.292555"/>
<line x1="245.266" y1="177.175" x2="536.65" y2="177.175" stroke="#CCCCCC" stroke-width="0.292555"/>
<line x1="245.266" y1="142.07" x2="536.65" y2="142.07" stroke="#CCCCCC" stroke-width="0.292555"/>
<line x1="245.266" y1="106.96" x2="536.65" y2="106.96" stroke="#CCCCCC" stroke-width="0.292555"/>
<line x1="245.266" y1="71.8564" x2="536.65" y2="71.8564" stroke="#CCCCCC" stroke-width="0.292555"/>
<line x1="245.266" y1="36.7488" x2="536.65" y2="36.7488" stroke="#CCCCCC" stroke-width="0.292555"/>
<line x1="513.69" y1="388.547" x2="513.69" y2="1.20413" stroke="#CCCCCC" stroke-width="0.292555"/>
<line x1="478.588" y1="388.547" x2="478.588" y2="1.20413" stroke="#CCCCCC" stroke-width="0.292555"/>
<line x1="443.471" y1="388.547" x2="443.471" y2="1.20413" stroke="#CCCCCC" stroke-width="0.292555"/>
<line x1="408.37" y1="388.545" x2="408.37" y2="1.20251" stroke="#CCCCCC" stroke-width="0.292555"/>
<line x1="373.268" y1="388.545" x2="373.268" y2="1.20242" stroke="#CCCCCC" stroke-width="0.292555"/>
<line x1="338.158" y1="388.547" x2="338.158" y2="1.20413" stroke="#CCCCCC" stroke-width="0.292555"/>
<line x1="303.057" y1="388.547" x2="303.057" y2="1.20413" stroke="#CCCCCC" stroke-width="0.292555"/>
<line x1="267.947" y1="388.547" x2="267.947" y2="1.20413" stroke="#CCCCCC" stroke-width="0.292555"/>
<line x1="513.891" y1="282.367" x2="782.542" y2="282.367" stroke="#CCCCCC" stroke-width="0.292555"/>
<line x1="513.891" y1="247.261" x2="782.542" y2="247.261" stroke="#CCCCCC" stroke-width="0.292555"/>
<line x1="513.891" y1="212.154" x2="782.542" y2="212.154" stroke="#CCCCCC" stroke-width="0.292555"/>
<line x1="513.891" y1="177.048" x2="782.542" y2="177.048" stroke="#CCCCCC" stroke-width="0.292555"/>
<line x1="513.891" y1="141.941" x2="782.542" y2="141.941" stroke="#CCCCCC" stroke-width="0.292555"/>
<line x1="513.891" y1="106.833" x2="782.542" y2="106.833" stroke="#CCCCCC" stroke-width="0.292555"/>
<line x1="513.891" y1="71.7287" x2="782.542" y2="71.7287" stroke="#CCCCCC" stroke-width="0.292555"/>
<line x1="513.891" y1="36.6213" x2="782.542" y2="36.6213" stroke="#CCCCCC" stroke-width="0.292555"/>
<line x1="759.58" y1="388.417" x2="759.58" y2="1.07498" stroke="#CCCCCC" stroke-width="0.292555"/>
<line x1="724.479" y1="388.417" x2="724.479" y2="1.07498" stroke="#CCCCCC" stroke-width="0.292555"/>
<line x1="689.362" y1="388.417" x2="689.362" y2="1.07498" stroke="#CCCCCC" stroke-width="0.292555"/>
<line x1="654.26" y1="388.416" x2="654.26" y2="1.07336" stroke="#CCCCCC" stroke-width="0.292555"/>
<line x1="619.158" y1="388.416" x2="619.158" y2="1.07327" stroke="#CCCCCC" stroke-width="0.292555"/>
<line x1="584.041" y1="388.417" x2="584.041" y2="1.07498" stroke="#CCCCCC" stroke-width="0.292555"/>
<line x1="548.947" y1="388.417" x2="548.948" y2="1.07498" stroke="#CCCCCC" stroke-width="0.292555"/>
</g>
<g clip-path="url(#clip1_6598_537)">
<line x1="719.266" y1="282.494" x2="1010.65" y2="282.494" stroke="#CCCCCC" stroke-width="0.292555"/>
<line x1="719.266" y1="247.389" x2="1010.65" y2="247.389" stroke="#CCCCCC" stroke-width="0.292555"/>
<line x1="719.266" y1="212.281" x2="1010.65" y2="212.281" stroke="#CCCCCC" stroke-width="0.292555"/>
<line x1="719.266" y1="177.175" x2="1010.65" y2="177.175" stroke="#CCCCCC" stroke-width="0.292555"/>
<line x1="719.266" y1="142.07" x2="1010.65" y2="142.07" stroke="#CCCCCC" stroke-width="0.292555"/>
<line x1="719.266" y1="106.96" x2="1010.65" y2="106.96" stroke="#CCCCCC" stroke-width="0.292555"/>
<line x1="719.266" y1="71.8564" x2="1010.65" y2="71.8564" stroke="#CCCCCC" stroke-width="0.292555"/>
<line x1="719.266" y1="36.7488" x2="1010.65" y2="36.7488" stroke="#CCCCCC" stroke-width="0.292555"/>
<line x1="987.69" y1="388.547" x2="987.69" y2="1.20413" stroke="#CCCCCC" stroke-width="0.292555"/>
<line x1="952.588" y1="388.547" x2="952.588" y2="1.20413" stroke="#CCCCCC" stroke-width="0.292555"/>
<line x1="917.471" y1="388.547" x2="917.471" y2="1.20413" stroke="#CCCCCC" stroke-width="0.292555"/>
<line x1="882.37" y1="388.545" x2="882.37" y2="1.20251" stroke="#CCCCCC" stroke-width="0.292555"/>
<line x1="847.268" y1="388.545" x2="847.268" y2="1.20242" stroke="#CCCCCC" stroke-width="0.292555"/>
<line x1="812.158" y1="388.547" x2="812.158" y2="1.20413" stroke="#CCCCCC" stroke-width="0.292555"/>
<line x1="987.891" y1="282.367" x2="1256.54" y2="282.367" stroke="#CCCCCC" stroke-width="0.292555"/>
<line x1="987.891" y1="247.261" x2="1256.54" y2="247.261" stroke="#CCCCCC" stroke-width="0.292555"/>
<line x1="987.891" y1="212.154" x2="1256.54" y2="212.154" stroke="#CCCCCC" stroke-width="0.292555"/>
<line x1="987.891" y1="177.048" x2="1256.54" y2="177.048" stroke="#CCCCCC" stroke-width="0.292555"/>
<line x1="987.891" y1="141.941" x2="1256.54" y2="141.941" stroke="#CCCCCC" stroke-width="0.292555"/>
<line x1="987.891" y1="106.833" x2="1256.54" y2="106.833" stroke="#CCCCCC" stroke-width="0.292555"/>
<line x1="987.891" y1="71.7287" x2="1256.54" y2="71.7287" stroke="#CCCCCC" stroke-width="0.292555"/>
<line x1="987.891" y1="36.6213" x2="1256.54" y2="36.6213" stroke="#CCCCCC" stroke-width="0.292555"/>
<line x1="1233.58" y1="388.417" x2="1233.58" y2="1.07498" stroke="#CCCCCC" stroke-width="0.292555"/>
<line x1="1198.48" y1="388.417" x2="1198.48" y2="1.07498" stroke="#CCCCCC" stroke-width="0.292555"/>
<line x1="1163.36" y1="388.417" x2="1163.36" y2="1.07498" stroke="#CCCCCC" stroke-width="0.292555"/>
<line x1="1128.26" y1="388.416" x2="1128.26" y2="1.07336" stroke="#CCCCCC" stroke-width="0.292555"/>
<line x1="1093.16" y1="388.416" x2="1093.16" y2="1.07327" stroke="#CCCCCC" stroke-width="0.292555"/>
<line x1="1058.04" y1="388.417" x2="1058.04" y2="1.07498" stroke="#CCCCCC" stroke-width="0.292555"/>
<line x1="1022.95" y1="388.417" x2="1022.95" y2="1.07498" stroke="#CCCCCC" stroke-width="0.292555"/>
</g>
</g>
<defs>
<clipPath id="clip0_6598_537">
<rect width="783" height="283" fill="white"/>
</clipPath>
<clipPath id="clip1_6598_537">
<rect width="474" height="283" fill="white" transform="translate(783)"/>
</clipPath>
</defs>
</svg>
