<svg width="1276" height="246" viewBox="0 0 1276 246" fill="none" xmlns="http://www.w3.org/2000/svg">
<g clip-path="url(#clip0_6598_943)">
<line x1="569" y1="206.234" x2="861.213" y2="206.234" stroke="#CCCCCC" stroke-width="0.353474"/>
<line x1="569" y1="163.816" x2="861.213" y2="163.816" stroke="#CCCCCC" stroke-width="0.353474"/>
<line x1="569" y1="121.4" x2="861.213" y2="121.4" stroke="#CCCCCC" stroke-width="0.353474"/>
<line x1="430" y1="79.4531" x2="861" y2="79.4531" stroke="#CCCCCC" stroke-width="0.353474"/>
<line x1="569" y1="36.5645" x2="861.213" y2="36.5645" stroke="#CCCCCC" stroke-width="0.353474"/>
<line x1="802.948" y1="376.786" x2="802.948" y2="-91.2139" stroke="#CCCCCC" stroke-width="0.353474"/>
<line x1="767.745" y1="376.786" x2="767.745" y2="-91.2139" stroke="#CCCCCC" stroke-width="0.353474"/>
<line x1="732.542" y1="376.786" x2="732.542" y2="-91.2139" stroke="#CCCCCC" stroke-width="0.353474"/>
<line x1="697.503" y1="358.845" x2="697.503" y2="-91.1553" stroke="#CCCCCC" stroke-width="0.353474"/>
<line x1="661.823" y1="309.628" x2="661.823" y2="-91.3721" stroke="#CCCCCC" stroke-width="0.353474"/>
<line x1="626.823" y1="288.628" x2="626.823" y2="-91.3721" stroke="#CCCCCC" stroke-width="0.353474"/>
<line x1="591.823" y1="268.628" x2="591.823" y2="-91.3721" stroke="#CCCCCC" stroke-width="0.353474"/>
<line x1="815.203" y1="206.234" x2="1107.42" y2="206.234" stroke="#CCCCCC" stroke-width="0.353474"/>
<line x1="815.203" y1="163.816" x2="1107.42" y2="163.816" stroke="#CCCCCC" stroke-width="0.353474"/>
<line x1="815.203" y1="121.4" x2="1107.42" y2="121.4" stroke="#CCCCCC" stroke-width="0.353474"/>
<line x1="815" y1="79.8231" x2="1275" y2="79.8231" stroke="#CCCCCC" stroke-width="0.353474"/>
<line x1="815" y1="36.8231" x2="1275" y2="36.8231" stroke="#CCCCCC" stroke-width="0.353474"/>
<line x1="1084.36" y1="376.786" x2="1084.36" y2="-91.2139" stroke="#CCCCCC" stroke-width="0.353474"/>
<line x1="1049.15" y1="376.786" x2="1049.15" y2="-91.2139" stroke="#CCCCCC" stroke-width="0.353474"/>
<line x1="1013.95" y1="376.786" x2="1013.95" y2="-91.2139" stroke="#CCCCCC" stroke-width="0.353474"/>
<line x1="978.745" y1="376.784" x2="978.745" y2="-91.2158" stroke="#CCCCCC" stroke-width="0.353474"/>
<line x1="943.542" y1="376.784" x2="943.542" y2="-91.2158" stroke="#CCCCCC" stroke-width="0.353474"/>
<line x1="908.323" y1="376.786" x2="908.323" y2="-91.2139" stroke="#CCCCCC" stroke-width="0.353474"/>
<line x1="873.12" y1="376.786" x2="873.12" y2="-91.2139" stroke="#CCCCCC" stroke-width="0.353474"/>
<line x1="837.917" y1="376.786" x2="837.917" y2="-91.2139" stroke="#CCCCCC" stroke-width="0.353474"/>
<line x1="1084.58" y1="206.08" x2="1353.99" y2="206.08" stroke="#CCCCCC" stroke-width="0.353474"/>
<line x1="1084.58" y1="163.662" x2="1353.99" y2="163.662" stroke="#CCCCCC" stroke-width="0.353474"/>
<line x1="1084.58" y1="121.246" x2="1353.99" y2="121.246" stroke="#CCCCCC" stroke-width="0.353474"/>
<line x1="1260.82" y1="377" x2="1260.82" y2="1" stroke="#CCCCCC" stroke-width="0.353474"/>
<line x1="1225.32" y1="376.628" x2="1225.32" y2="-91.3721" stroke="#CCCCCC" stroke-width="0.353474"/>
<line x1="1189.82" y1="312" x2="1189.82" y2="0.999878" stroke="#CCCCCC" stroke-width="0.353474"/>
<line x1="1154.82" y1="341" x2="1154.82" y2="0.999878" stroke="#CCCCCC" stroke-width="0.353474"/>
<line x1="1119.82" y1="376.628" x2="1119.82" y2="6.62793" stroke="#CCCCCC" stroke-width="0.353474"/>
<line x1="-206" y1="206.234" x2="86.2133" y2="206.234" stroke="#CCCCCC" stroke-width="0.353474"/>
<line x1="-206" y1="163.816" x2="86.2133" y2="163.816" stroke="#CCCCCC" stroke-width="0.353474"/>
<line x1="-206" y1="121.4" x2="86.2133" y2="121.4" stroke="#CCCCCC" stroke-width="0.353474"/>
<line x1="-206" y1="78.9844" x2="86.2133" y2="78.9844" stroke="#CCCCCC" stroke-width="0.353474"/>
<line x1="-206" y1="36.5645" x2="86.2133" y2="36.5645" stroke="#CCCCCC" stroke-width="0.353474"/>
<line x1="27.9483" y1="376.786" x2="27.9483" y2="-91.2139" stroke="#CCCCCC" stroke-width="0.353474"/>
<line x1="40.2032" y1="206.234" x2="332.417" y2="206.234" stroke="#CCCCCC" stroke-width="0.353474"/>
<line x1="40.2032" y1="163.816" x2="332.417" y2="163.816" stroke="#CCCCCC" stroke-width="0.353474"/>
<line x1="40.2032" y1="121.4" x2="332.417" y2="121.4" stroke="#CCCCCC" stroke-width="0.353474"/>
<line x1="40.0001" y1="79.4512" x2="430" y2="79.4512" stroke="#CCCCCC" stroke-width="0.353474"/>
<line x1="40.0001" y1="36.4531" x2="627" y2="36.4531" stroke="#CCCCCC" stroke-width="0.353474"/>
<line x1="309.363" y1="376.786" x2="309.363" y2="-91.2139" stroke="#CCCCCC" stroke-width="0.353474"/>
<line x1="274.152" y1="376.786" x2="274.152" y2="-91.2139" stroke="#CCCCCC" stroke-width="0.353474"/>
<line x1="238.949" y1="376.786" x2="238.949" y2="-91.2139" stroke="#CCCCCC" stroke-width="0.353474"/>
<line x1="203.745" y1="376.784" x2="203.745" y2="-91.2158" stroke="#CCCCCC" stroke-width="0.353474"/>
<line x1="168.542" y1="376.784" x2="168.542" y2="-91.2158" stroke="#CCCCCC" stroke-width="0.353474"/>
<line x1="133.324" y1="376.786" x2="133.324" y2="-91.2139" stroke="#CCCCCC" stroke-width="0.353474"/>
<line x1="98.1204" y1="376.786" x2="98.1205" y2="-91.2139" stroke="#CCCCCC" stroke-width="0.353474"/>
<line x1="62.9173" y1="376.786" x2="62.9173" y2="-91.2139" stroke="#CCCCCC" stroke-width="0.353474"/>
<line x1="309.578" y1="206.08" x2="578.993" y2="206.08" stroke="#CCCCCC" stroke-width="0.353474"/>
<line x1="309.578" y1="163.662" x2="578.993" y2="163.662" stroke="#CCCCCC" stroke-width="0.353474"/>
<line x1="309.578" y1="121.246" x2="578.993" y2="121.246" stroke="#CCCCCC" stroke-width="0.353474"/>
<line x1="555.823" y1="376.63" x2="555.823" y2="0.629883" stroke="#CCCCCC" stroke-width="0.353474"/>
<line x1="520.683" y1="376.845" x2="520.683" y2="-22.1553" stroke="#CCCCCC" stroke-width="0.353474"/>
<line x1="485.55" y1="376.845" x2="485.55" y2="-48.1553" stroke="#CCCCCC" stroke-width="0.353474"/>
<line x1="450.323" y1="376.628" x2="450.323" y2="-91.3721" stroke="#CCCCCC" stroke-width="0.353474"/>
<line x1="414.823" y1="306.628" x2="414.823" y2="-4.37207" stroke="#CCCCCC" stroke-width="0.353474"/>
<line x1="379.823" y1="338.628" x2="379.823" y2="-1.37207" stroke="#CCCCCC" stroke-width="0.353474"/>
<line x1="344.823" y1="366.628" x2="344.823" y2="-3.37207" stroke="#CCCCCC" stroke-width="0.353474"/>
</g>
<defs>
<clipPath id="clip0_6598_943">
<rect width="1276" height="246" fill="white" transform="matrix(-1 0 0 1 1276 0)"/>
</clipPath>
</defs>
</svg>
